#!OML:ASF X:\für Bonn\!DataBase\2005_08_10_Bjorn_Final\c3d\bjorn.ASF
:FULLY-SPECIFIED
:DEGREES
31
root 1.58511 17.4224 3.18437 -178.96 0.483513 -180.98
lowerback 11.0639 0.780842 4.73423
upperback 7.1635 2.38286 -1.40141
thorax 1.52941 1.77729 -4.33526
lowerneck -21.1705 -3.18114 -0.971536
upperneck 4.78234 -4.33285 0.540747
head 4.8123 -2.23224 -0.11643
rclavicle 2.74323e-014 5.96354e-016
rhumerus 75.7098 1.29872 -75.2181
rradius 10.8652
rwrist 44.7414
rhand -11.1267 10.0375
rfingers 7.12502
rthumb 14.8984 -19.4067
lclavicle 2.74323e-014 5.96354e-016
lhumerus 78.622 -12.3258 60.9279
lradius 12.754
lwrist -35.2901
lhand -15.6545 -4.38987
lfingers 7.12502
lthumb 10.5334 25.3262
rfemur -32.833 -10.9602 17.1799
rtibia 67.537
rfoot -24.1511 17.7915
rtoes -13.0758
lfemur -31.0008 2.9084 -19.743
ltibia 66.0659
lfoot -24.9216 3.09856
ltoes -19.7114
32
root 1.57984 17.2731 3.23456 -179.117 0.347824 -181.01
lowerback 11.8241 0.618836 4.75596
upperback 7.3713 2.27556 -1.37974
thorax 1.32402 1.75369 -4.34029
lowerneck -21.3967 -3.13563 -1.04479
upperneck 4.50793 -4.283 0.584666
head 4.76107 -2.2189 -0.0874353
rclavicle -1.90833e-014 2.5842e-015
rhumerus 76.0715 1.3087 -74.6697
rradius 11.2068
rwrist 44.2992
rhand -11.0618 10.0537
rfingers 7.12502
rthumb 14.961 -19.3859
lclavicle -1.90833e-014 2.5842e-015
lhumerus 79.1348 -12.2336 59.9731
lradius 12.7705
lwrist -34.3324
lhand -16.1971 -4.26066
lfingers 7.12502
lthumb 10.01 25.4813
rfemur -34.0152 -10.94 16.9491
rtibia 69.7201
rfoot -24.3753 18.357
rtoes -13.5417
lfemur -32.4329 2.92611 -19.8366
ltibia 68.5782
lfoot -25.0273 3.2481
ltoes -20.6426
33
root 1.57278 17.1141 3.28534 -179.246 0.211469 -181.023
lowerback 12.5172 0.449761 4.79681
upperback 7.6059 2.1635 -1.33635
thorax 1.18452 1.73235 -4.32763
lowerneck -21.6046 -3.09528 -1.16744
upperneck 4.18213 -4.23051 0.620925
head 4.69129 -2.20792 -0.052076
rclavicle -1.07344e-014 7.95139e-015
rhumerus 76.449 1.29435 -74.2921
rradius 11.5501
rwrist 44.0531
rhand -11.053 10.1291
rfingers 7.12502
rthumb 14.9695 -19.3099
lclavicle -1.07344e-014 7.95139e-015
lhumerus 79.6166 -12.0868 59.1011
lradius 12.8543
lwrist -33.4374
lhand -16.711 -4.11251
lfingers 7.12502
lthumb 9.51419 25.6527
rfemur -35.2285 -10.9785 16.7381
rtibia 71.8831
rfoot -24.5851 18.9554
rtoes -13.825
lfemur -33.9442 2.96244 -19.9166
ltibia 71.1615
lfoot -25.1412 3.26664
ltoes -21.2119
34
root 1.56574 16.9478 3.33661 -179.377 0.0767615 -181.02
lowerback 13.1953 0.277298 4.86338
upperback 7.85672 2.05629 -1.3077
thorax 1.07459 1.71851 -4.34283
lowerneck -21.8218 -3.05266 -1.24889
upperneck 3.85537 -4.18888 0.672142
head 4.62199 -2.20096 -0.0197083
rclavicle 1.17283e-014 -8.34896e-015
rhumerus 76.8418 1.27278 -73.672
rradius 11.8844
rwrist 43.6062
rhand -11.1126 10.2163
rfingers 7.12502
rthumb 14.9121 -19.2269
lclavicle 1.17283e-014 -8.34896e-015
lhumerus 80.0797 -11.9213 58.3795
lradius 12.9801
lwrist -32.6886
lhand -17.0093 -4.0097
lfingers 7.12502
lthumb 9.22635 25.7684
rfemur -36.4515 -11.1014 16.5944
rtibia 74.0413
rfoot -24.9915 19.3175
rtoes -14.9615
lfemur -35.4903 3.00581 -19.98
ltibia 73.7725
lfoot -25.2517 3.35584
ltoes -22.1781
35
root 1.55851 16.772 3.38866 -179.498 -0.0600445 -180.999
lowerback 13.8528 1.63651 5.31408
upperback 8.15665 1.57563 -1.09683
thorax 1.08494 0.507113 -4.34734
lowerneck -22.0295 -3.00673 -1.32474
upperneck 3.51182 -4.14464 0.701004
head 4.5451 -2.19529 0.00527975
rclavicle 3.44891e-014 -9.93923e-016
rhumerus 77.2737 1.22023 -72.9863
rradius 12.1167
rwrist 43.1915
rhand -11.2557 10.3927
rfingers 7.12502
rthumb 14.7741 -19.0607
lclavicle 3.44891e-014 -9.93923e-016
lhumerus 80.549 -11.7299 57.6822
lradius 13.1344
lwrist -31.9945
lhand -17.2001 -3.94625
lfingers 7.12502
lthumb 9.04224 25.8399
rfemur -37.72 -11.3485 16.5391
rtibia 76.2125
rfoot -25.6083 19.3752
rtoes -16.7277
lfemur -37.054 3.05617 -20.0231
ltibia 76.3751
lfoot -25.3536 3.39681
ltoes -22.9485
36
root 1.5497 16.5919 3.43935 -179.629 -0.185925 -180.977
lowerback 14.4845 1.56665 5.4377
upperback 8.43419 1.43542 -1.03854
thorax 1.03755 0.407564 -4.35139
lowerneck -22.2186 -2.96056 -1.39431
upperneck 3.16206 -4.10268 0.722632
head 4.46309 -2.1917 0.027112
rclavicle 1.49089e-014 -5.36719e-015
rhumerus 77.7223 1.18592 -72.2965
rradius 12.3178
rwrist 42.8031
rhand -11.4659 10.589
rfingers 7.12502
rthumb 14.5716 -18.8792
lclavicle 1.49089e-014 -5.36719e-015
lhumerus 81.0449 -11.4742 56.9139
lradius 13.3101
lwrist -31.1965
lhand -17.2393 -3.85935
lfingers 7.12502
lthumb 9.00443 25.9285
rfemur -38.9773 -11.649 16.516
rtibia 78.3797
rfoot -26.2211 19.3495
rtoes -18.2278
lfemur -38.5899 3.11964 -20.0702
ltibia 78.9499
lfoot -25.4728 3.42401
ltoes -23.8325
37
root 1.54084 16.4055 3.49062 -179.742 -0.331573 -180.956
lowerback 15.091 1.50086 5.55974
upperback 8.70259 1.30096 -0.981232
thorax 0.996589 0.311148 -4.35394
lowerneck -22.3968 -2.90184 -1.41899
upperneck 2.84497 -4.05207 0.718664
head 4.38825 -2.1839 0.0345917
rclavicle 5.26779e-015 -1.35174e-014
rhumerus 78.1695 1.13649 -71.3632
rradius 12.4546
rwrist 42.2353
rhand -11.7802 10.8249
rfingers 7.12502
rthumb 14.2688 -18.6649
lclavicle 5.26779e-015 -1.35174e-014
lhumerus 81.6095 -11.2397 55.9637
lradius 13.4669
lwrist -30.1908
lhand -17.2099 -3.75361
lfingers 7.12502
lthumb 9.03282 26.033
rfemur -40.2648 -12.0059 16.5239
rtibia 80.5538
rfoot -26.8072 19.2905
rtoes -19.3046
lfemur -40.1336 3.17156 -20.1085
ltibia 81.5016
lfoot -25.643 3.26061
ltoes -24.2056
38
root 1.53094 16.2144 3.5404 -179.856 -0.45834 -180.9
lowerback 15.7 1.43094 5.73391
upperback 8.9502 1.17103 -0.931815
thorax 0.937594 0.218868 -4.39335
lowerneck -22.5051 -2.83713 -1.42124
upperneck 2.51179 -3.99966 0.717585
head 4.29783 -2.17435 0.0409258
rclavicle -6.55989e-015 -5.96354e-015
rhumerus 78.5805 1.09257 -70.3462
rradius 12.5664
rwrist 41.4922
rhand -12.084 11.0903
rfingers 7.12502
rthumb 13.976 -18.4199
lclavicle -6.55989e-015 -5.96354e-015
lhumerus 82.1097 -10.9948 55.1928
lradius 13.6281
lwrist -29.4026
lhand -17.1012 -3.72506
lfingers 7.12502
lthumb 9.13766 26.057
rfemur -41.5583 -12.3838 16.5848
rtibia 82.7197
rfoot -27.405 19.1909
rtoes -20.209
lfemur -41.6687 3.26204 -20.1134
ltibia 84.0414
lfoot -25.8686 3.07047
ltoes -24.6339
39
root 1.52068 16.019 3.58829 -179.971 -0.554444 -180.845
lowerback 16.3076 1.36854 5.86938
upperback 9.17626 1.05039 -0.855345
thorax 0.856646 0.128689 -4.38168
lowerneck -22.592 -2.78739 -1.4705
upperneck 2.22941 -3.95029 0.713564
head 4.22121 -2.16512 0.0532454
rclavicle 7.15625e-015 5.1684e-015
rhumerus 78.9835 1.12877 -68.8152
rradius 12.6442
rwrist 40.2648
rhand -12.4509 11.3054
rfingers 7.12502
rthumb 13.6224 -18.2289
lclavicle 7.15625e-015 5.1684e-015
lhumerus 82.5989 -10.7433 54.2841
lradius 13.7715
lwrist -28.3427
lhand -17.0274 -3.60515
lfingers 7.12502
lthumb 9.20889 26.1738
rfemur -42.8542 -12.7652 16.6424
rtibia 84.8802
rfoot -27.8896 19.1971
rtoes -20.6927
lfemur -43.1866 3.40146 -20.11
ltibia 86.5492
lfoot -26.1207 2.75394
ltoes -24.7234
40
root 1.51012 15.8176 3.63525 -180.059 -0.661263 -180.772
lowerback 16.9301 1.29236 6.04807
upperback 9.33999 0.933971 -0.804426
thorax 0.705677 0.0443937 -4.42071
lowerneck -22.5541 -2.7206 -1.43375
upperneck 1.91426 -3.8973 0.683894
head 4.11441 -2.15341 0.046661
rclavicle 8.94531e-015 1.82882e-014
rhumerus 79.2615 1.16949 -67.0685
rradius 12.7855
rwrist 38.5939
rhand -12.8094 11.5263
rfingers 7.12502
rthumb 13.2769 -18.0308
lclavicle 8.94531e-015 1.82882e-014
lhumerus 83.0697 -10.5437 53.1893
lradius 13.9028
lwrist -27.1579
lhand -16.9504 -3.53859
lfingers 7.12502
lthumb 9.28325 26.237
rfemur -44.192 -13.1845 16.7113
rtibia 87.0441
rfoot -28.3243 19.301
rtoes -20.997
lfemur -44.7268 3.54013 -20.0795
ltibia 89.0289
lfoot -26.3987 2.36465
ltoes -24.6481
41
root 1.4992 15.6156 3.68021 -180.185 -0.747728 -180.698
lowerback 17.6122 1.22528 6.24501
upperback 9.48315 0.838823 -0.773874
thorax 0.507588 -0.0300947 -4.49416
lowerneck -22.498 -2.65579 -1.33519
upperneck 1.64355 -3.85698 0.633549
head 4.01788 -2.1463 0.0225351
rclavicle -1.53064e-014 1.59028e-015
rhumerus 79.4012 1.16511 -65.4692
rradius 13.0757
rwrist 36.915
rhand -13.076 11.8181
rfingers 7.12502
rthumb 13.02 -17.7556
lclavicle -1.53064e-014 1.59028e-015
lhumerus 83.533 -10.404 52.1174
lradius 14.0231
lwrist -25.9508
lhand -16.9331 -3.48321
lfingers 7.12502
lthumb 9.29988 26.2917
rfemur -45.47 -13.575 16.7373
rtibia 89.1833
rfoot -28.667 19.5494
rtoes -20.9888
lfemur -46.1935 3.72191 -20.0369
ltibia 91.4487
lfoot -26.6794 2.00043
ltoes -24.9803
